<?xml version="1.0" encoding="UTF-8" standalone="no"?>
<svg
   xmlns:dc="http://purl.org/dc/elements/1.1/"
   xmlns:cc="http://creativecommons.org/ns#"
   xmlns:rdf="http://www.w3.org/1999/02/22-rdf-syntax-ns#"
   xmlns:svg="http://www.w3.org/2000/svg"
   xmlns="http://www.w3.org/2000/svg"
   xmlns:sodipodi="http://sodipodi.sourceforge.net/DTD/sodipodi-0.dtd"
   xmlns:inkscape="http://www.inkscape.org/namespaces/inkscape"
   version="1.1"
   id="svg2"
   xml:space="preserve"
   width="666.66669"
   height="666.66669"
   viewBox="0 0 666.66669 666.66669"
   sodipodi:docname="covid.svg"
   inkscape:version="1.0.1 (3bc2e813f5, 2020-09-07)"><sodipodi:namedview
     pagecolor="#ffffff"
     bordercolor="#666666"
     borderopacity="1"
     objecttolerance="10"
     gridtolerance="10"
     guidetolerance="10"
     inkscape:pageopacity="0"
     inkscape:pageshadow="2"
     inkscape:window-width="1920"
     inkscape:window-height="1050"
     id="namedview219"
     showgrid="false"
     inkscape:zoom="0.91959234"
     inkscape:cx="366.49686"
     inkscape:cy="347.53098"
     inkscape:window-x="1920"
     inkscape:window-y="0"
     inkscape:window-maximized="1"
     inkscape:current-layer="g14"
     inkscape:document-rotation="0" /><metadata
     id="metadata8"><rdf:RDF><cc:Work
         rdf:about=""><dc:format>image/svg+xml</dc:format><dc:type
           rdf:resource="http://purl.org/dc/dcmitype/StillImage" /><dc:title /></cc:Work></rdf:RDF></metadata><defs
     id="defs6"><clipPath
       clipPathUnits="userSpaceOnUse"
       id="clipPath18"><path
         d="M 0,500 H 500 V 0 H 0 Z"
         id="path16" /></clipPath><clipPath
       clipPathUnits="userSpaceOnUse"
       id="clipPath446"><path
         d="m 156.31,436.987 h 94.671 V 228.526 H 156.31 Z"
         id="path444" /></clipPath><clipPath
       clipPathUnits="userSpaceOnUse"
       id="clipPath474"><path
         d="M 0,500 H 500 V 0 H 0 Z"
         id="path472" /></clipPath><clipPath
       clipPathUnits="userSpaceOnUse"
       id="clipPath498"><path
         d="M 0,500 H 500 V 0 H 0 Z"
         id="path496" /></clipPath></defs><g
     id="g10"
     transform="matrix(1.3333333,0,0,-1.3333333,0,666.66667)"><g
       id="g12"
       transform="matrix(2.0761158,0,0,2.0761158,-268.29303,-450.77013)"><g
         id="g14"
         clip-path="url(#clipPath18)"><g
           id="g28"
           transform="translate(299.7891,429.189)" /><g
           id="g254"
           transform="matrix(2.8342661,0,0,2.8342661,331.50889,395.74824)"><path
             d="m 0,0 c -1.371,-0.673 -1.909,-2.486 -1.48,-4.41 -2.269,-1.67 -5.987,-1.604 -8.231,-1.373 -0.539,0.752 -1.115,1.464 -1.721,2.137 0.155,1.541 0.604,3.63 1.92,4.596 1.336,-0.775 2.703,-0.877 3.346,-0.141 0.814,0.921 0.183,2.806 -1.413,4.209 -1.585,1.39 -3.534,1.781 -4.347,0.856 -0.646,-0.737 -0.369,-2.077 0.571,-3.301 -0.792,-1.429 -2.807,-2.144 -4.317,-2.494 -0.752,0.518 -1.529,0.995 -2.332,1.424 -0.52,2.196 -1.066,5.878 0.303,8.345 1.965,-0.178 3.689,0.588 4.185,2.034 0.62,1.813 -0.943,3.99 -3.486,4.858 -2.539,0.866 -5.1,0.094 -5.723,-1.72 -0.49,-1.447 0.407,-3.109 2.073,-4.169 -0.426,-2.788 -3.105,-5.369 -4.856,-6.79 -0.898,0.149 -1.804,0.251 -2.717,0.296 -0.98,1.198 -2.14,2.994 -1.896,4.613 1.492,0.391 2.531,1.286 2.468,2.263 -0.081,1.23 -1.857,2.113 -3.969,1.979 -2.116,-0.137 -3.766,-1.244 -3.683,-2.47 0.061,-0.98 1.203,-1.731 2.735,-1.933 0.453,-1.567 -0.469,-3.502 -1.287,-4.81 -0.893,-0.165 -1.78,-0.376 -2.667,-0.644 -1.917,1.187 -4.899,3.405 -5.679,6.114 1.513,1.262 2.191,3.027 1.52,4.394 -0.848,1.721 -3.487,2.155 -5.899,0.972 -2.404,-1.182 -3.676,-3.544 -2.828,-5.262 0.672,-1.369 2.481,-1.907 4.408,-1.479 1.672,-2.271 1.602,-5.989 1.376,-8.234 -0.754,-0.534 -1.466,-1.112 -2.138,-1.716 -1.537,0.153 -3.629,0.602 -4.597,1.918 0.775,1.336 0.882,2.701 0.144,3.347 -0.926,0.813 -2.809,0.184 -4.21,-1.411 -1.395,-1.59 -1.782,-3.538 -0.856,-4.349 0.734,-0.648 2.078,-0.37 3.299,0.572 1.43,-0.794 2.146,-2.807 2.496,-4.313 -0.521,-0.754 -0.997,-1.536 -1.427,-2.337 -2.199,-0.521 -5.878,-1.067 -8.342,0.302 0.174,1.965 -0.591,3.693 -2.039,4.183 -1.811,0.621 -3.989,-0.939 -4.853,-3.482 -0.866,-2.539 -0.097,-5.106 1.723,-5.721 1.442,-0.495 3.104,0.402 4.162,2.069 2.787,-0.423 5.374,-3.103 6.796,-4.853 -0.154,-0.895 -0.253,-1.81 -0.304,-2.724 -1.193,-0.976 -2.994,-2.136 -4.607,-1.887 -0.394,1.488 -1.285,2.528 -2.26,2.464 -1.228,-0.078 -2.117,-1.859 -1.982,-3.968 0.139,-2.114 1.244,-3.77 2.474,-3.686 0.973,0.062 1.727,1.206 1.923,2.733 1.574,0.457 3.503,-0.465 4.815,-1.285 0.166,-0.888 0.377,-1.781 0.643,-2.66 -1.185,-1.922 -3.404,-4.907 -6.115,-5.684 -1.258,1.517 -3.027,2.193 -4.394,1.523 -1.721,-0.847 -2.154,-3.488 -0.973,-5.9 1.187,-2.409 3.541,-3.677 5.264,-2.829 1.371,0.669 1.91,2.483 1.478,4.407 2.274,1.673 5.991,1.605 8.235,1.374 0.538,-0.751 1.112,-1.463 1.718,-2.139 -0.15,-1.536 -0.601,-3.628 -1.924,-4.597 -1.332,0.778 -2.699,0.879 -3.341,0.144 -0.817,-0.92 -0.184,-2.803 1.408,-4.205 1.588,-1.397 3.542,-1.786 4.353,-0.857 0.645,0.735 0.366,2.074 -0.572,3.297 0.787,1.43 2.809,2.148 4.313,2.49 0.753,-0.518 1.535,-0.987 2.337,-1.414 0.519,-2.201 1.063,-5.882 -0.309,-8.35 -1.962,0.179 -3.689,-0.589 -4.177,-2.035 -0.623,-1.811 0.938,-3.986 3.479,-4.853 2.545,-0.869 5.105,-0.096 5.721,1.717 0.497,1.444 -0.407,3.105 -2.071,4.165 0.425,2.786 3.109,5.371 4.857,6.792 0.899,-0.149 1.81,-0.249 2.725,-0.298 0.978,-1.195 2.133,-2.993 1.891,-4.606 -1.491,-0.395 -2.533,-1.288 -2.467,-2.266 0.074,-1.227 1.857,-2.117 3.967,-1.977 2.115,0.138 3.763,1.241 3.687,2.47 -0.063,0.977 -1.207,1.728 -2.738,1.929 -0.453,1.571 0.471,3.5 1.285,4.812 0.893,0.165 1.784,0.376 2.662,0.644 1.92,-1.186 4.906,-3.405 5.687,-6.112 -1.519,-1.264 -2.195,-3.029 -1.527,-4.396 0.848,-1.721 3.493,-2.155 5.898,-0.973 2.414,1.184 3.68,3.542 2.832,5.261 -0.671,1.372 -2.484,1.91 -4.412,1.482 -1.665,2.271 -1.601,5.987 -1.365,8.23 0.747,0.537 1.459,1.112 2.135,1.718 1.537,-0.153 3.631,-0.603 4.593,-1.921 -0.771,-1.331 -0.874,-2.698 -0.14,-3.343 0.92,-0.813 2.81,-0.184 4.203,1.411 1.404,1.584 1.783,3.535 0.86,4.35 -0.734,0.647 -2.074,0.37 -3.298,-0.571 -1.431,0.789 -2.144,2.804 -2.493,4.314 0.517,0.753 0.994,1.533 1.426,2.332 2.195,0.52 5.873,1.067 8.343,-0.306 -0.18,-1.96 0.59,-3.686 2.031,-4.177 1.819,-0.623 3.993,0.938 4.858,3.482 0.866,2.541 0.092,5.105 -1.717,5.721 -1.451,0.495 -3.107,-0.405 -4.168,-2.073 -2.789,0.425 -5.373,3.106 -6.795,4.857 0.154,0.899 0.251,1.805 0.301,2.718 1.197,0.984 2.992,2.142 4.609,1.895 0.391,-1.489 1.288,-2.529 2.26,-2.465 1.235,0.074 2.119,1.855 1.981,3.968 -0.136,2.116 -1.242,3.765 -2.469,3.684 -0.977,-0.06 -1.73,-1.204 -1.93,-2.735 -1.566,-0.453 -3.5,0.468 -4.812,1.287 -0.165,0.89 -0.375,1.782 -0.645,2.664 1.193,1.919 3.405,4.903 6.115,5.68 1.26,-1.512 3.028,-2.193 4.397,-1.519 1.721,0.844 2.152,3.486 0.971,5.892 C 4.074,-0.423 1.72,0.845 0,0"
             style="fill:#fc6670;fill-opacity:1;fill-rule:nonzero;stroke:none"
             id="path256" /></g><g
           id="g258"
           transform="matrix(2.8342661,0,0,2.8342661,258.65945,390.6015)"><path
             d="m 0,0 c 0.107,-1.444 -1.649,-2.75 -3.919,-2.917 -2.266,-0.164 -4.192,0.871 -4.297,2.312 -0.108,1.444 1.646,2.754 3.917,2.917 C -2.03,2.478 -0.104,1.444 0,0"
             style="fill:#d8434b;fill-opacity:1;fill-rule:nonzero;stroke:none"
             id="path260" /></g><g
           id="g262"
           transform="matrix(2.8342661,0,0,2.8342661,242.16856,338.47199)"><path
             d="M 0,0 C 0.25,-0.964 -0.48,-1.985 -1.627,-2.279 -2.771,-2.57 -3.899,-2.028 -4.145,-1.064 -4.394,-0.1 -3.666,0.922 -2.519,1.213 -1.374,1.506 -0.245,0.964 0,0"
             style="fill:#d8434b;fill-opacity:1;fill-rule:nonzero;stroke:none"
             id="path264" /></g><g
           id="g266"
           transform="matrix(2.8342661,0,0,2.8342661,217.07282,385.93234)"><path
             d="M 0,0 C -0.618,0.779 -0.366,2.009 0.562,2.742 1.486,3.474 2.739,3.438 3.354,2.657 3.974,1.878 3.724,0.647 2.795,-0.085 1.867,-0.818 0.618,-0.782 0,0"
             style="fill:#d8434b;fill-opacity:1;fill-rule:nonzero;stroke:none"
             id="path268" /></g><g
           id="g270"
           transform="matrix(2.8342661,0,0,2.8342661,265.46567,305.3714)"><path
             d="M 0,0 C -0.913,1.119 -0.236,3.195 1.526,4.633 3.286,6.073 5.458,6.334 6.372,5.215 7.296,4.095 6.608,2.02 4.843,0.58 3.085,-0.862 0.915,-1.122 0,0"
             style="fill:#d8434b;fill-opacity:1;fill-rule:nonzero;stroke:none"
             id="path272" /></g><g
           id="g274"
           transform="matrix(2.8342661,0,0,2.8342661,204.14686,371.47164)"><path
             d="M 0,0 C 1.257,-0.709 1.376,-2.891 0.259,-4.873 -0.847,-6.855 -2.78,-7.887 -4.043,-7.178 -5.3,-6.467 -5.42,-4.283 -4.304,-2.301 -3.19,-0.318 -1.263,0.712 0,0"
             style="fill:#d8434b;fill-opacity:1;fill-rule:nonzero;stroke:none"
             id="path276" /></g><g
           id="g278"
           transform="matrix(2.8342661,0,0,2.8342661,297.03286,345.27136)"><path
             d="M 0,0 C 1.175,-0.053 2.053,-1.579 1.977,-3.414 1.891,-5.25 0.882,-6.697 -0.283,-6.64 -1.451,-6.591 -2.336,-5.065 -2.256,-3.232 -2.174,-1.395 -1.162,0.05 0,0"
             style="fill:#d8434b;fill-opacity:1;fill-rule:nonzero;stroke:none"
             id="path280" /></g><g
           id="g282"
           transform="matrix(2.8342661,0,0,2.8342661,204.02782,341.36574)"><path
             d="M 0,0 C 1.11,0.357 2.467,-0.776 3.018,-2.527 3.576,-4.274 3.123,-5.98 2.006,-6.331 0.894,-6.687 -0.457,-5.552 -1.013,-3.803 -1.569,-2.055 -1.117,-0.351 0,0"
             style="fill:#d8434b;fill-opacity:1;fill-rule:nonzero;stroke:none"
             id="path284" /></g><g
           id="g286"
           transform="matrix(2.8342661,0,0,2.8342661,288.1259,364.18528)"><path
             d="M 0,0 C -1.037,-0.837 -2.719,-0.475 -3.757,0.81 -4.795,2.095 -4.799,3.814 -3.76,4.65 -2.72,5.489 -1.043,5.125 -0.004,3.84 1.037,2.556 1.035,0.837 0,0"
             style="fill:#d8434b;fill-opacity:1;fill-rule:nonzero;stroke:none"
             id="path288" /></g><g
           id="g290"
           transform="matrix(2.8342661,0,0,2.8342661,241.59008,311.58672)"><path
             d="m 0,0 c 0.095,-1.444 -1.67,-2.736 -3.94,-2.881 -2.27,-0.15 -4.188,0.903 -4.28,2.35 -0.097,1.447 1.67,2.733 3.94,2.881 C -2.009,2.498 -0.091,1.443 0,0"
             style="fill:#d8434b;fill-opacity:1;fill-rule:nonzero;stroke:none"
             id="path292" /></g><g
           id="g294"
           transform="matrix(2.8342661,0,0,2.8342661,275.71493,346.07263)"><path
             d="M 0,0 C -0.121,1.771 -1.59,2.988 -3.287,2.719 -4.982,2.446 -6.256,0.792 -6.135,-0.977 -6.018,-2.748 -4.549,-3.963 -2.853,-3.695 -1.159,-3.422 0.119,-1.769 0,0"
             style="fill:#d8434b;fill-opacity:1;fill-rule:nonzero;stroke:none"
             id="path296" /></g><g
           id="g298"
           transform="matrix(2.8342661,0,0,2.8342661,242.02487,368.69974)"><path
             d="m 0,0 c 0.875,-1.784 0.129,-3.951 -1.666,-4.832 -1.8,-0.884 -3.963,-0.15 -4.844,1.636 -0.876,1.786 -0.135,3.947 1.666,4.831 C -3.049,2.518 -0.879,1.788 0,0"
             style="fill:#d8434b;fill-opacity:1;fill-rule:nonzero;stroke:none"
             id="path300" /></g><g
           id="g302"
           transform="matrix(2.8342661,0,0,2.8342661,304.55018,398.44023)"><path
             d="M 0,0 C 1.336,-0.774 2.703,-0.877 3.346,-0.141 4.16,0.781 3.528,2.666 1.933,4.068 0.348,5.458 -1.602,5.85 -2.414,4.924 -3.061,4.187 -2.783,2.847 -1.844,1.624 -2.469,0.499 -3.85,-0.181 -5.146,-0.591 -3.912,-1.747 -2.828,-3.017 -1.894,-4.374 -1.721,-2.859 -1.256,-0.921 0,0"
             style="fill:#d64354;fill-opacity:1;fill-rule:nonzero;stroke:none"
             id="path304" /></g><g
           id="g306"
           transform="matrix(2.8342661,0,0,2.8342661,351.81383,303.89363)"><path
             d="m 0,0 c 0.866,2.541 0.092,5.104 -1.717,5.721 -1.451,0.494 -3.107,-0.405 -4.168,-2.073 -2.789,0.424 -5.373,3.106 -6.795,4.857 0.154,0.898 0.251,1.805 0.301,2.718 1.197,0.984 2.992,2.141 4.608,1.895 0.392,-1.489 1.289,-2.53 2.261,-2.465 1.235,0.074 2.119,1.855 1.981,3.968 -0.136,2.115 -1.242,3.764 -2.469,3.684 -0.977,-0.06 -1.731,-1.204 -1.93,-2.735 -1.566,-0.454 -3.5,0.468 -4.812,1.286 -0.165,0.891 -0.375,1.783 -0.645,2.665 1.193,1.918 3.405,4.902 6.114,5.679 1.261,-1.511 3.029,-2.193 4.398,-1.518 1.721,0.844 2.152,3.486 0.971,5.892 -1.188,2.411 -3.542,3.679 -5.262,2.835 -1.371,-0.673 -1.909,-2.486 -1.481,-4.41 -2.268,-1.67 -5.986,-1.604 -8.23,-1.374 -0.322,0.449 -0.661,0.879 -1.007,1.3 4.499,-7.35 4.777,-16.907 -0.093,-24.717 -6.868,-11.011 -21.361,-14.37 -32.372,-7.502 -6.472,4.037 -10.298,10.709 -10.958,17.758 -1.177,-0.9 -2.781,-1.821 -4.238,-1.597 -0.395,1.488 -1.285,2.528 -2.26,2.464 -1.228,-0.079 -2.117,-1.859 -1.982,-3.968 0.139,-2.114 1.244,-3.77 2.473,-3.686 0.974,0.062 1.728,1.206 1.924,2.733 1.574,0.456 3.503,-0.465 4.815,-1.285 0.166,-0.888 0.377,-1.782 0.643,-2.66 -1.185,-1.922 -3.404,-4.907 -6.115,-5.684 -1.258,1.516 -3.027,2.193 -4.394,1.522 -1.721,-0.846 -2.154,-3.487 -0.973,-5.899 1.187,-2.409 3.541,-3.677 5.264,-2.83 1.371,0.67 1.91,2.484 1.478,4.408 2.274,1.672 5.991,1.605 8.235,1.373 0.538,-0.75 1.112,-1.462 1.718,-2.139 -0.15,-1.535 -0.601,-3.627 -1.924,-4.596 -1.332,0.777 -2.699,0.879 -3.341,0.144 -0.817,-0.921 -0.184,-2.803 1.408,-4.205 1.588,-1.397 3.542,-1.786 4.353,-0.857 0.645,0.735 0.366,2.073 -0.572,3.297 0.787,1.43 2.809,2.147 4.313,2.49 0.753,-0.518 1.535,-0.988 2.337,-1.415 0.519,-2.2 1.063,-5.881 -0.309,-8.349 -1.962,0.179 -3.689,-0.589 -4.177,-2.035 -0.623,-1.812 0.938,-3.986 3.479,-4.853 2.545,-0.869 5.105,-0.097 5.721,1.717 0.497,1.444 -0.407,3.105 -2.071,4.165 0.425,2.786 3.109,5.37 4.857,6.792 0.899,-0.15 1.81,-0.25 2.725,-0.298 0.978,-1.195 2.133,-2.993 1.891,-4.607 -1.492,-0.395 -2.534,-1.287 -2.467,-2.265 0.074,-1.228 1.857,-2.117 3.967,-1.977 2.115,0.138 3.763,1.241 3.687,2.469 -0.063,0.978 -1.207,1.729 -2.738,1.929 -0.453,1.571 0.471,3.501 1.285,4.812 0.893,0.165 1.784,0.377 2.662,0.645 1.92,-1.187 4.906,-3.405 5.687,-6.112 -1.519,-1.265 -2.195,-3.029 -1.527,-4.396 0.848,-1.722 3.492,-2.155 5.898,-0.973 2.414,1.184 3.679,3.541 2.832,5.261 -0.671,1.372 -2.484,1.909 -4.412,1.482 -1.665,2.271 -1.601,5.987 -1.365,8.229 0.747,0.538 1.459,1.112 2.135,1.718 1.537,-0.152 3.631,-0.603 4.593,-1.92 -0.772,-1.331 -0.874,-2.698 -0.14,-3.343 0.92,-0.813 2.81,-0.185 4.202,1.41 1.405,1.585 1.784,3.535 0.861,4.351 -0.735,0.647 -2.074,0.369 -3.298,-0.572 -1.431,0.79 -2.144,2.805 -2.493,4.314 0.517,0.754 0.994,1.534 1.426,2.332 2.195,0.521 5.873,1.068 8.343,-0.306 -0.18,-1.96 0.59,-3.685 2.031,-4.176 C -3.039,-4.105 -0.865,-2.544 0,0"
             style="fill:#d64354;fill-opacity:1;fill-rule:nonzero;stroke:none"
             id="path308" /></g></g></g></g></svg>
