<?xml version="1.0" encoding="UTF-8" standalone="no"?>
<svg
   xmlns:dc="http://purl.org/dc/elements/1.1/"
   xmlns:cc="http://creativecommons.org/ns#"
   xmlns:rdf="http://www.w3.org/1999/02/22-rdf-syntax-ns#"
   xmlns:svg="http://www.w3.org/2000/svg"
   xmlns="http://www.w3.org/2000/svg"
   version="1.1"
   id="svg2"
   xml:space="preserve"
   width="666.66669"
   height="666.66669"
   viewBox="0 0 666.66669 666.66669"><metadata
     id="metadata8"><rdf:RDF><cc:Work
         rdf:about=""><dc:format>image/svg+xml</dc:format><dc:type
           rdf:resource="http://purl.org/dc/dcmitype/StillImage" /><dc:title></dc:title></cc:Work></rdf:RDF></metadata><defs
     id="defs6"><clipPath
       clipPathUnits="userSpaceOnUse"
       id="clipPath18"><path
         d="M 0,500 H 500 V 0 H 0 Z"
         id="path16" /></clipPath><clipPath
       clipPathUnits="userSpaceOnUse"
       id="clipPath446"><path
         d="m 156.31,436.987 h 94.671 V 228.526 H 156.31 Z"
         id="path444" /></clipPath><clipPath
       clipPathUnits="userSpaceOnUse"
       id="clipPath474"><path
         d="M 0,500 H 500 V 0 H 0 Z"
         id="path472" /></clipPath><clipPath
       clipPathUnits="userSpaceOnUse"
       id="clipPath498"><path
         d="M 0,500 H 500 V 0 H 0 Z"
         id="path496" /></clipPath></defs><g
     id="g10"
     transform="matrix(1.3333333,0,0,-1.3333333,0,666.66667)"><g
       id="g12"
       transform="matrix(2.1352844,0,0,2.1352844,-286.65265,-469.69021)"><g
         id="g14"
         clip-path="url(#clipPath18)"><g
           id="g20"
           transform="translate(248.8604,229.0127)"><path
             d="m 0,0 c -1.889,0.809 -46.549,20.289 -70.157,62.598 -20.46,36.668 -22.271,99.129 -22.337,101.77 l -0.057,2.231 2.143,0.621 c 14.027,4.068 24.119,11.733 29.991,22.782 4.349,8.179 4.624,15.106 4.626,15.174 l 0.093,2.798 H 57.976 l 0.092,-2.798 c 0.044,-1.145 1.47,-28.343 34.617,-37.956 l 2.143,-0.621 -0.057,-2.231 C 94.704,161.727 92.895,99.266 72.434,62.598 48.825,20.289 4.166,0.809 2.276,0 L 1.139,-0.487 Z"
             style="fill:#0094c2;fill-opacity:1;fill-rule:nonzero;stroke:none"
             id="path22" /></g><g
           id="g24"
           transform="translate(250,238.4395)"><path
             d="m 0,0 c -10.777,5.248 -44.564,23.783 -63.415,57.569 -16.234,29.092 -20.14,77.457 -20.993,93.063 17.542,6.368 26.436,17.459 30.821,25.708 2.705,5.091 4.113,9.833 4.839,13.183 H 48.798 C 50.89,180.234 58.364,160.089 84.405,150.632 83.554,135.029 79.651,86.671 63.415,57.569 44.538,23.74 10.773,5.237 0,0"
             style="fill:#00aee4;fill-opacity:1;fill-rule:nonzero;stroke:none"
             id="path26" /></g><g
           id="g28"
           transform="translate(299.7891,429.189)"><path
             d="m 0,0 h -99.537 c -0.65,-3.349 -2.026,-8.386 -4.922,-13.834 -4.398,-8.274 -13.326,-19.272 -31.012,-25.435 0.717,-13.927 4.418,-64.443 21.196,-94.509 19.514,-34.976 55.135,-53.842 64.486,-58.334 9.348,4.484 44.946,23.319 64.486,58.334 16.774,30.065 20.477,80.578 21.193,94.509 C 8.888,-29.861 1.811,-8.938 0,0 m -1.962,-2.453 c 2.403,-9.761 10.24,-29.034 35.304,-38.5 -0.947,-16.416 -4.978,-63.295 -20.786,-91.63 -18.404,-32.977 -51.117,-51.272 -62.344,-56.801 -11.233,5.54 -43.969,23.864 -62.346,56.801 -15.807,28.329 -19.841,75.212 -20.789,91.63 17.344,6.548 26.216,17.664 30.629,25.968 2.519,4.737 3.94,9.183 4.735,12.532 h 95.597"
             style="fill:#ffffff;fill-opacity:1;fill-rule:nonzero;stroke:none"
             id="path30" /></g><g
           id="g32"
           transform="translate(246.5459,408.9067)"><path
             d="m 0,0 c -0.008,-0.624 -2.149,-1.407 -4.784,-1.764 -2.635,-0.358 -4.879,-0.171 -5.017,0.434 -0.141,0.623 1.996,1.449 4.779,1.827 C -2.24,0.874 0.009,0.644 0,0"
             style="fill:#ffffff;fill-opacity:1;fill-rule:nonzero;stroke:none"
             id="path34" /></g><g
           id="g36"
           transform="translate(246.5459,408.9067)"><path
             d="m 0,0 c 0,0 -0.107,-2.306 -0.987,-5.996 -0.688,-2.88 -0.216,-6.005 1.329,-8.98 0.238,-0.458 0.46,-0.926 0.648,-1.39 0,0 -2.699,-1.48 -7.647,-1.038 0,0 0.007,0.106 0.17,0.665 1.045,3.593 0.711,7.089 -0.844,9.927 -0.842,1.538 -1.732,3.401 -2.47,5.482 z"
             style="fill:#ffffff;fill-opacity:1;fill-rule:nonzero;stroke:none"
             id="path38" /></g><g
           id="g40"
           transform="translate(245.7031,408.9458)"><path
             d="m 0,0 c -0.024,-0.384 -1.822,-0.928 -4.014,-1.226 -2.192,-0.297 -4.046,-0.248 -4.142,0.12 -0.099,0.378 1.696,0.949 4.011,1.263 C -1.829,0.472 0.026,0.396 0,0"
             style="fill:#00aee4;fill-opacity:1;fill-rule:nonzero;stroke:none"
             id="path42" /></g><g
           id="g44"
           transform="translate(275.5,401.8604)"><path
             d="M 0,0 C -0.263,-0.487 -2.511,-0.179 -5.028,0.676 -7.546,1.53 -9.489,2.645 -9.365,3.179 -9.239,3.73 -6.978,3.458 -4.318,2.555 -1.659,1.653 0.271,0.502 0,0"
             style="fill:#ffffff;fill-opacity:1;fill-rule:nonzero;stroke:none"
             id="path46" /></g><g
           id="g48"
           transform="translate(275.5,401.8604)"><path
             d="m 0,0 c 0,0 -1.039,-1.766 -3.34,-4.287 -1.796,-1.967 -2.649,-4.627 -2.474,-7.63 0.027,-0.463 0.035,-0.927 0.015,-1.373 0,0 -3.034,0 -7.307,2.481 0,0 0.049,0.08 0.423,0.45 2.41,2.373 3.538,5.264 3.3,8.166 -0.13,1.57 -0.17,3.419 0.018,5.372 z"
             style="fill:#ffffff;fill-opacity:1;fill-rule:nonzero;stroke:none"
             id="path50" /></g><g
           id="g52"
           transform="translate(274.7578,402.2544)"><path
             d="M 0,0 C -0.18,-0.291 -2.021,0.056 -4.115,0.767 -6.21,1.478 -7.858,2.315 -7.795,2.646 -7.729,2.986 -5.88,2.661 -3.667,1.91 -1.454,1.159 0.186,0.3 0,0"
             style="fill:#00aee4;fill-opacity:1;fill-rule:nonzero;stroke:none"
             id="path54" /></g><g
           id="g56"
           transform="translate(296.5908,381.9072)"><path
             d="M 0,0 C -0.363,-0.229 -2.163,1.126 -4.028,3.02 -5.895,4.914 -7.202,6.712 -6.941,7.045 -6.674,7.389 -4.853,6.054 -2.882,4.054 -0.911,2.053 0.374,0.235 0,0"
             style="fill:#ffffff;fill-opacity:1;fill-rule:nonzero;stroke:none"
             id="path58" /></g><g
           id="g60"
           transform="translate(296.5908,381.9072)"><path
             d="m 0,0 c 0,0 -1.39,-0.785 -4.062,-1.496 -2.084,-0.554 -3.58,-2.093 -4.311,-4.401 -0.112,-0.356 -0.241,-0.704 -0.388,-1.023 0,0 -2.551,1.522 -5.417,5.498 0,0 0.066,0.034 0.489,0.119 2.718,0.548 4.513,2.119 5.161,4.385 0.351,1.226 0.858,2.613 1.587,3.963 z"
             style="fill:#ffffff;fill-opacity:1;fill-rule:nonzero;stroke:none"
             id="path62" /></g><g
           id="g64"
           transform="translate(296.082,382.5703)"><path
             d="M 0,0 C -0.236,-0.125 -1.682,1.054 -3.234,2.63 -4.787,4.206 -5.927,5.651 -5.777,5.864 -5.622,6.083 -4.163,4.916 -2.523,3.251 -0.884,1.586 0.243,0.129 0,0"
             style="fill:#00aee4;fill-opacity:1;fill-rule:nonzero;stroke:none"
             id="path66" /></g><g
           id="g68"
           transform="translate(310.0332,361.5459)"><path
             d="M 0,0 C -0.5,-0.099 -1.686,1.829 -2.661,4.302 -3.638,6.775 -4.077,8.965 -3.631,9.2 -3.171,9.443 -1.952,7.527 -0.922,4.915 0.109,2.303 0.516,0.101 0,0"
             style="fill:#ffffff;fill-opacity:1;fill-rule:nonzero;stroke:none"
             id="path70" /></g><g
           id="g72"
           transform="translate(310.0332,361.5459)"><path
             d="m 0,0 c 0,0 -1.866,-0.289 -5.039,-0.07 -2.477,0.171 -4.845,-0.814 -6.811,-2.805 -0.302,-0.307 -0.618,-0.601 -0.938,-0.861 0,0 -1.888,2.344 -2.833,7.179 0,0 0.087,0.012 0.574,-0.05 3.139,-0.394 5.838,0.521 7.693,2.5 1.005,1.07 2.257,2.244 3.723,3.307 z"
             style="fill:#ffffff;fill-opacity:1;fill-rule:nonzero;stroke:none"
             id="path74" /></g><g
           id="g76"
           transform="translate(309.8437,362.3628)"><path
             d="M 0,0 C -0.313,-0.041 -1.219,1.595 -2.03,3.653 -2.843,5.71 -3.29,7.501 -3.021,7.656 -2.746,7.816 -1.82,6.187 -0.962,4.014 -0.104,1.84 0.322,0.042 0,0"
             style="fill:#00aee4;fill-opacity:1;fill-rule:nonzero;stroke:none"
             id="path78" /></g><g
           id="g80"
           transform="translate(313.5742,336.6958)"><path
             d="M 0,0 C -0.543,0.106 -0.915,2.345 -0.846,5.002 -0.776,7.66 -0.288,9.847 0.26,9.887 0.823,9.929 1.233,7.688 1.16,4.881 1.086,2.075 0.56,-0.11 0,0"
             style="fill:#ffffff;fill-opacity:1;fill-rule:nonzero;stroke:none"
             id="path82" /></g><g
           id="g84"
           transform="translate(313.5742,336.6958)"><path
             d="m 0,0 c 0,0 -1.994,0.469 -5.084,1.919 -2.412,1.132 -5.205,1.158 -8.021,0.1 -0.434,-0.163 -0.875,-0.308 -1.307,-0.421 0,0 -0.9,2.898 0.203,7.715 0,0 0.091,-0.024 0.555,-0.272 2.981,-1.598 6.077,-1.819 8.777,-0.73 1.462,0.589 3.216,1.176 5.137,1.576 z"
             style="fill:#ffffff;fill-opacity:1;fill-rule:nonzero;stroke:none"
             id="path86" /></g><g
           id="g88"
           transform="translate(313.7305,337.5215)"><path
             d="M 0,0 C -0.332,0.085 -0.546,1.946 -0.488,4.157 -0.43,6.369 -0.119,8.191 0.216,8.229 0.561,8.267 0.798,6.405 0.736,4.068 0.676,1.732 0.341,-0.088 0,0"
             style="fill:#00aee4;fill-opacity:1;fill-rule:nonzero;stroke:none"
             id="path90" /></g><g
           id="g92"
           transform="translate(304.1826,313.2534)"><path
             d="M 0,0 C -0.396,0.282 0.187,2.465 1.292,4.883 2.396,7.302 3.651,9.146 4.108,8.998 4.579,8.845 4.025,6.647 2.859,4.093 1.693,1.538 0.408,-0.291 0,0"
             style="fill:#ffffff;fill-opacity:1;fill-rule:nonzero;stroke:none"
             id="path94" /></g><g
           id="g96"
           transform="translate(304.1826,313.2534)"><path
             d="m 0,0 c 0,0 -1.422,1.107 -3.339,3.487 -1.496,1.857 -3.735,2.828 -6.421,2.811 -0.414,-0.003 -0.826,0.013 -1.219,0.055 0,0 0.419,2.968 3.206,7.021 0,0 0.064,-0.053 0.339,-0.438 1.772,-2.479 4.179,-3.731 6.783,-3.646 1.41,0.046 3.054,-0.009 4.759,-0.292 z"
             style="fill:#ffffff;fill-opacity:1;fill-rule:nonzero;stroke:none"
             id="path98" /></g><g
           id="g100"
           transform="translate(304.6338,313.9595)"><path
             d="M 0,0 C -0.233,0.191 0.328,1.973 1.247,3.985 2.166,5.998 3.135,7.567 3.419,7.488 3.712,7.406 3.169,5.615 2.198,3.489 1.228,1.363 0.24,-0.196 0,0"
             style="fill:#00aee4;fill-opacity:1;fill-rule:nonzero;stroke:none"
             id="path102" /></g><g
           id="g104"
           transform="translate(288.8623,293.7139)"><path
             d="M 0,0 C -0.282,0.446 1.086,2.251 3.048,4.045 5.011,5.838 6.91,7.019 7.302,6.672 7.705,6.315 6.36,4.482 4.288,2.588 2.215,0.693 0.292,-0.459 0,0"
             style="fill:#ffffff;fill-opacity:1;fill-rule:nonzero;stroke:none"
             id="path106" /></g><g
           id="g108"
           transform="translate(288.8623,293.7139)"><path
             d="m 0,0 c 0,0 -0.981,1.691 -1.979,4.812 -0.78,2.437 -2.608,4.368 -5.234,5.565 -0.405,0.185 -0.802,0.386 -1.169,0.603 0,0 1.495,2.624 5.697,5.206 0,0 0.044,-0.079 0.172,-0.568 C -1.692,12.469 0.196,10.195 2.768,9.099 4.159,8.506 5.742,7.711 7.302,6.672 Z"
             style="fill:#ffffff;fill-opacity:1;fill-rule:nonzero;stroke:none"
             id="path110" /></g><g
           id="g112"
           transform="translate(289.5615,294.1797)"><path
             d="M 0,0 C -0.158,0.286 1.042,1.721 2.675,3.214 4.309,4.707 5.828,5.756 6.076,5.552 6.332,5.343 5.146,3.89 3.421,2.313 1.696,0.737 0.162,-0.295 0,0"
             style="fill:#00aee4;fill-opacity:1;fill-rule:nonzero;stroke:none"
             id="path114" /></g><g
           id="g116"
           transform="translate(266.6543,281.6694)"><path
             d="M 0,0 C -0.098,0.555 1.858,1.708 4.366,2.59 6.874,3.473 9.094,3.789 9.33,3.283 9.573,2.762 7.629,1.572 4.98,0.64 2.331,-0.292 0.101,-0.572 0,0"
             style="fill:#ffffff;fill-opacity:1;fill-rule:nonzero;stroke:none"
             id="path118" /></g><g
           id="g120"
           transform="translate(266.6543,281.6694)"><path
             d="m 0,0 c 0,0 -0.285,2.065 -0.051,5.521 0.184,2.698 -0.804,5.364 -2.813,7.666 -0.31,0.354 -0.605,0.721 -0.867,1.091 0,0 2.381,1.89 7.28,2.562 0,0 0.011,-0.095 -0.053,-0.625 C 3.084,12.809 4,9.786 5.995,7.606 7.076,6.426 8.26,4.967 9.33,3.283 Z"
             style="fill:#ffffff;fill-opacity:1;fill-rule:nonzero;stroke:none"
             id="path122" /></g><g
           id="g124"
           transform="translate(267.4814,281.8159)"><path
             d="M 0,0 C -0.04,0.346 1.62,1.214 3.707,1.948 5.794,2.682 7.609,3.037 7.766,2.732 7.926,2.418 6.272,1.527 4.068,0.751 1.864,-0.024 0.042,-0.356 0,0"
             style="fill:#00aee4;fill-opacity:1;fill-rule:nonzero;stroke:none"
             id="path126" /></g><g
           id="g128"
           transform="translate(241.4199,283.9751)"><path
             d="M 0,0 C 0.119,0.41 2.363,0.597 5.017,0.427 7.669,0.258 9.843,-0.21 9.871,-0.63 9.9,-1.062 7.653,-1.278 4.851,-1.099 2.048,-0.92 -0.122,-0.422 0,0"
             style="fill:#ffffff;fill-opacity:1;fill-rule:nonzero;stroke:none"
             id="path130" /></g><g
           id="g132"
           transform="translate(241.4199,283.9751)"><path
             d="m 0,0 c 0,0 0.514,1.502 2.031,3.798 1.185,1.791 1.275,3.922 0.282,6.119 -0.154,0.338 -0.29,0.681 -0.393,1.015 0,0 2.916,0.56 7.702,-0.492 0,0 -0.025,-0.068 -0.284,-0.411 C 7.676,7.823 7.386,5.469 8.412,3.36 8.968,2.218 9.514,0.854 9.871,-0.63 Z"
             style="fill:#ffffff;fill-opacity:1;fill-rule:nonzero;stroke:none"
             id="path134" /></g><g
           id="g136"
           transform="translate(242.2422,283.8203)"><path
             d="M 0,0 C 0.092,0.249 1.955,0.331 4.163,0.19 6.371,0.049 8.185,-0.268 8.214,-0.525 8.244,-0.79 6.379,-0.89 4.047,-0.741 1.715,-0.592 -0.096,-0.257 0,0"
             style="fill:#00aee4;fill-opacity:1;fill-rule:nonzero;stroke:none"
             id="path138" /></g><g
           id="g140"
           transform="translate(216.3232,287.1499)"><path
             d="M 0,0 C 0.363,0.516 2.574,-0.045 4.95,-1.239 7.325,-2.434 9.068,-3.861 8.837,-4.443 8.6,-5.043 6.367,-4.521 3.858,-3.259 1.35,-1.998 -0.373,-0.532 0,0"
             style="fill:#ffffff;fill-opacity:1;fill-rule:nonzero;stroke:none"
             id="path142" /></g><g
           id="g144"
           transform="translate(216.3232,287.1499)"><path
             d="m 0,0 c 0,0 1.402,1.861 4.23,4.439 2.207,2.013 3.599,4.886 4.02,8.241 0.065,0.517 0.149,1.033 0.258,1.527 0,0 3.068,-0.295 6.895,-3.467 0,0 -0.066,-0.085 -0.518,-0.458 C 11.977,7.878 10.26,4.774 9.924,1.526 9.742,-0.232 9.415,-2.291 8.837,-4.443 Z"
             style="fill:#ffffff;fill-opacity:1;fill-rule:nonzero;stroke:none"
             id="path146" /></g><g
           id="g148"
           transform="translate(216.9961,286.6396)"><path
             d="M 0,0 C 0.239,0.306 2.031,-0.258 4.008,-1.251 5.984,-2.246 7.484,-3.336 7.354,-3.697 7.22,-4.069 5.415,-3.528 3.327,-2.479 1.239,-1.429 -0.247,-0.315 0,0"
             style="fill:#00aee4;fill-opacity:1;fill-rule:nonzero;stroke:none"
             id="path150" /></g><g
           id="g152"
           transform="translate(200.0635,307.5264)"><path
             d="M 0,0 C 0.424,0.238 2.15,-1.219 3.869,-3.247 5.588,-5.275 6.722,-7.196 6.394,-7.547 6.056,-7.908 4.302,-6.472 2.486,-4.33 0.672,-2.187 -0.437,-0.246 0,0"
             style="fill:#ffffff;fill-opacity:1;fill-rule:nonzero;stroke:none"
             id="path154" /></g><g
           id="g156"
           transform="translate(200.0635,307.5264)"><path
             d="m 0,0 c 0,0 1.606,0.815 4.576,1.537 2.318,0.564 4.15,2.177 5.277,4.614 0.173,0.376 0.364,0.743 0.569,1.079 0,0 2.508,-1.642 4.988,-5.888 0,0 -0.075,-0.036 -0.541,-0.121 C 11.873,0.673 9.715,-0.972 8.684,-3.365 8.125,-4.66 7.375,-6.124 6.394,-7.547 Z"
             style="fill:#ffffff;fill-opacity:1;fill-rule:nonzero;stroke:none"
             id="path158" /></g><g
           id="g160"
           transform="translate(200.5107,306.8174)"><path
             d="M 0,0 C 0.271,0.13 1.646,-1.136 3.075,-2.824 4.506,-4.512 5.513,-6.057 5.32,-6.28 5.122,-6.511 3.731,-5.257 2.221,-3.474 0.711,-1.691 -0.28,-0.134 0,0"
             style="fill:#00aee4;fill-opacity:1;fill-rule:nonzero;stroke:none"
             id="path162" /></g><g
           id="g164"
           transform="translate(185.6797,328.7061)"><path
             d="M 0,0 C 0.642,0.103 1.787,-1.875 2.575,-4.414 3.362,-6.953 3.528,-9.204 2.931,-9.447 2.313,-9.698 1.125,-7.732 0.293,-5.05 -0.539,-2.368 -0.661,-0.106 0,0"
             style="fill:#ffffff;fill-opacity:1;fill-rule:nonzero;stroke:none"
             id="path166" /></g><g
           id="g168"
           transform="translate(185.6797,328.7061)"><path
             d="m 0,0 c 0,0 2.383,0.303 6.31,0.088 3.064,-0.168 6.195,0.852 8.999,2.907 0.432,0.316 0.878,0.619 1.323,0.887 0,0 1.949,-2.404 2.286,-7.371 0,0 -0.109,-0.012 -0.709,0.05 C 14.356,-3.045 10.823,-3.994 8.159,-6.034 6.717,-7.139 4.947,-8.349 2.931,-9.447 Z"
             style="fill:#ffffff;fill-opacity:1;fill-rule:nonzero;stroke:none"
             id="path170" /></g><g
           id="g172"
           transform="translate(185.7744,327.8667)"><path
             d="M 0,0 C 0.398,0.043 1.243,-1.636 1.899,-3.749 2.555,-5.862 2.8,-7.702 2.438,-7.862 2.065,-8.027 1.193,-6.355 0.501,-4.123 -0.191,-1.891 -0.41,-0.044 0,0"
             style="fill:#00aee4;fill-opacity:1;fill-rule:nonzero;stroke:none"
             id="path174" /></g><g
           id="g176"
           transform="translate(187.7207,354.9019)"><path
             d="M 0,0 C 0.534,-0.147 0.737,-2.407 0.468,-5.052 0.199,-7.697 -0.452,-9.841 -1,-9.84 c -0.565,0 -0.807,2.265 -0.522,5.059 C -1.238,-1.987 -0.55,0.151 0,0"
             style="fill:#ffffff;fill-opacity:1;fill-rule:nonzero;stroke:none"
             id="path178" /></g><g
           id="g180"
           transform="translate(187.7207,354.9019)"><path
             d="m 0,0 c 0,0 1.954,-0.617 4.926,-2.295 2.32,-1.309 5.103,-1.545 7.991,-0.702 0.445,0.13 0.896,0.242 1.334,0.323 0,0 0.68,-2.958 -0.78,-7.679 0,0 -0.09,0.031 -0.533,0.313 C 10.084,-8.223 7.014,-7.771 4.24,-8.654 2.737,-9.132 0.945,-9.585 -1,-9.84 Z"
             style="fill:#ffffff;fill-opacity:1;fill-rule:nonzero;stroke:none"
             id="path182" /></g><g
           id="g184"
           transform="translate(187.5029,354.0898)"><path
             d="M 0,0 C 0.324,-0.11 0.398,-1.981 0.175,-4.182 -0.049,-6.383 -0.496,-8.177 -0.832,-8.189 -1.179,-8.201 -1.276,-6.327 -1.04,-4.002 -0.804,-1.677 -0.334,0.113 0,0"
             style="fill:#00aee4;fill-opacity:1;fill-rule:nonzero;stroke:none"
             id="path186" /></g><g
           id="g188"
           transform="translate(201.8213,380.3726)"><path
             d="m 0,0 c 0.327,-0.318 -0.572,-2.386 -2.002,-4.628 -1.43,-2.242 -2.909,-3.906 -3.316,-3.712 -0.419,0.2 0.455,2.286 1.964,4.654 C -1.844,-1.318 -0.338,0.328 0,0"
             style="fill:#ffffff;fill-opacity:1;fill-rule:nonzero;stroke:none"
             id="path190" /></g><g
           id="g192"
           transform="translate(201.8213,380.3726)"><path
             d="M 0,0 C 0,0 1.162,-1.235 2.588,-3.767 3.7,-5.743 5.655,-6.934 8.19,-7.209 c 0.391,-0.042 0.777,-0.103 1.14,-0.187 0,0 -0.871,-2.852 -4.149,-6.507 0,0 -0.052,0.059 -0.25,0.465 -1.273,2.612 -3.34,4.096 -5.809,4.296 -1.337,0.108 -2.878,0.341 -4.44,0.802 z"
             style="fill:#ffffff;fill-opacity:1;fill-rule:nonzero;stroke:none"
             id="path194" /></g><g
           id="g196"
           transform="translate(201.2822,379.7324)"><path
             d="m 0,0 c 0.189,-0.211 -0.626,-1.891 -1.815,-3.756 -1.19,-1.866 -2.355,-3.293 -2.611,-3.184 -0.262,0.111 0.537,1.801 1.793,3.772 C -1.376,-1.198 -0.195,0.218 0,0"
             style="fill:#00aee4;fill-opacity:1;fill-rule:nonzero;stroke:none"
             id="path198" /></g><g
           id="g200"
           transform="translate(220.3994,399.5952)"><path
             d="m 0,0 c 0.217,-0.509 -1.428,-2.073 -3.667,-3.506 -2.239,-1.433 -4.323,-2.255 -4.664,-1.825 -0.351,0.443 1.274,2.039 3.64,3.553 C -2.326,-0.264 -0.223,0.525 0,0"
             style="fill:#ffffff;fill-opacity:1;fill-rule:nonzero;stroke:none"
             id="path202" /></g><g
           id="g204"
           transform="translate(220.3994,399.5952)"><path
             d="m 0,0 c 0,0 0.73,-1.915 1.264,-5.286 0.415,-2.631 1.96,-4.958 4.415,-6.697 0.378,-0.267 0.746,-0.551 1.082,-0.845 0,0 -1.896,-2.37 -6.501,-4.159 0,0 -0.032,0.089 -0.086,0.612 -0.35,3.364 -1.903,6.051 -4.32,7.676 -1.307,0.88 -2.776,2.003 -4.185,3.368 z"
             style="fill:#ffffff;fill-opacity:1;fill-rule:nonzero;stroke:none"
             id="path206" /></g><g
           id="g208"
           transform="translate(219.6289,399.2612)"><path
             d="m 0,0 c 0.114,-0.322 -1.306,-1.543 -3.169,-2.736 -1.863,-1.192 -3.547,-1.957 -3.765,-1.701 -0.225,0.265 1.183,1.505 3.152,2.765 C -1.813,-0.413 -0.119,0.332 0,0"
             style="fill:#00aee4;fill-opacity:1;fill-rule:nonzero;stroke:none"
             id="path210" /></g><g
           id="g212"
           transform="translate(300.3057,343.4351)"><path
             d="m 0,0 c 0,-27.615 -22.386,-50 -50,-50 -27.614,0 -50,22.385 -50,50 0,27.614 22.386,50 50,50 C -22.386,50 0,27.614 0,0"
             style="fill:#ffffff;fill-opacity:1;fill-rule:nonzero;stroke:none"
             id="path214" /></g><g
           id="g216"
           transform="translate(279.1953,382.936)"><path
             d="m 0,0 c -0.614,-1.362 -3.034,-1.599 -5.404,-0.53 -2.371,1.069 -3.795,3.039 -3.182,4.401 0.614,1.362 3.034,1.599 5.405,0.53 C -0.81,3.333 0.614,1.362 0,0"
             style="fill:#00aee4;fill-opacity:1;fill-rule:nonzero;stroke:none"
             id="path218" /></g><g
           id="g220"
           transform="translate(275.9756,376.0098)"><path
             d="m 0,0 c 0.233,1.641 -0.061,3.019 -0.061,3.019 1.715,1.377 3.277,3.909 3.277,3.909 l -4.289,1.934 -0.004,0.002 -4.289,1.933 c 0,0 -0.863,-2.847 -0.76,-5.043 0,0 -1.232,-0.696 -2.31,-1.963 -0.377,-0.28 -0.647,-0.644 -0.773,-1.087 -0.445,-1.566 1.049,-3.551 3.301,-4.566 2.251,-1.016 4.728,-0.822 5.607,0.55 C -0.05,-0.921 0.043,-0.473 0,0"
             style="fill:#00aee4;fill-opacity:1;fill-rule:nonzero;stroke:none"
             id="path222" /></g><g
           id="g224"
           transform="translate(278.7051,383.3008)"><path
             d="M 0,0 C -0.513,-1.139 -2.607,-1.305 -4.678,-0.371 -6.749,0.562 -8.011,2.242 -7.498,3.38 -6.984,4.519 -4.89,4.685 -2.819,3.751 -0.749,2.818 0.514,1.138 0,0"
             style="fill:#ffffff;fill-opacity:1;fill-rule:nonzero;stroke:none"
             id="path226" /></g><g
           id="g228"
           transform="translate(198.8848,343.1108)"><path
             d="M 0,0 C 1.492,0.073 2.805,-1.974 2.932,-4.571 3.059,-7.169 1.952,-9.334 0.46,-9.407 -1.032,-9.479 -2.345,-7.433 -2.472,-4.835 -2.599,-2.238 -1.492,-0.073 0,0"
             style="fill:#00aee4;fill-opacity:1;fill-rule:nonzero;stroke:none"
             id="path230" /></g><g
           id="g232"
           transform="translate(206.5176,343.3955)"><path
             d="m 0,0 c -1.567,-0.54 -2.661,-1.427 -2.661,-1.427 -2.005,0.9 -4.972,1.138 -4.972,1.138 l 0.231,-4.699 v -0.004 l 0.229,-4.699 c 0,0 2.929,0.526 4.837,1.618 0,0 1.18,-0.781 2.799,-1.163 0.421,-0.209 0.868,-0.284 1.319,-0.195 1.598,0.316 2.686,2.55 2.566,5.017 C 4.227,-1.947 2.927,0.171 1.306,0.33 0.844,0.375 0.402,0.253 0,0"
             style="fill:#00aee4;fill-opacity:1;fill-rule:nonzero;stroke:none"
             id="path234" /></g><g
           id="g236"
           transform="translate(198.7832,342.5088)"><path
             d="M 0,0 C 1.247,0.061 2.349,-1.729 2.459,-3.997 2.57,-6.266 1.648,-8.154 0.401,-8.215 -0.846,-8.276 -1.947,-6.486 -2.058,-4.218 -2.169,-1.949 -1.247,-0.061 0,0"
             style="fill:#ffffff;fill-opacity:1;fill-rule:nonzero;stroke:none"
             id="path238" /></g><g
           id="g240"
           transform="translate(251.8838,294.8584)"><path
             d="M 0,0 C -0.128,1.169 1.48,2.304 3.593,2.534 5.704,2.764 7.519,2.001 7.646,0.832 7.773,-0.338 6.165,-1.472 4.054,-1.702 1.941,-1.932 0.127,-1.17 0,0"
             style="fill:#00aee4;fill-opacity:1;fill-rule:nonzero;stroke:none"
             id="path242" /></g><g
           id="g244"
           transform="translate(251.3047,300.8462)"><path
             d="M 0,0 C 0.511,-1.206 1.284,-2.021 1.284,-2.021 0.642,-3.643 0.582,-5.988 0.582,-5.988 l 3.82,0.416 h 0.003 l 3.821,0.416 c 0,0 -0.564,2.277 -1.54,3.722 0,0 0.583,0.968 0.821,2.26 0.151,0.341 0.191,0.697 0.098,1.048 -0.33,1.24 -2.2,1.983 -4.206,1.765 C 1.395,3.421 -0.272,2.292 -0.328,1.01 -0.344,0.645 -0.225,0.303 0,0"
             style="fill:#00aee4;fill-opacity:1;fill-rule:nonzero;stroke:none"
             id="path246" /></g><g
           id="g248"
           transform="translate(252.3789,294.8086)"><path
             d="M 0,0 C -0.106,0.978 1.303,1.933 3.146,2.134 4.99,2.334 6.571,1.704 6.678,0.727 6.784,-0.251 5.376,-1.207 3.531,-1.407 1.687,-1.608 0.106,-0.978 0,0"
             style="fill:#ffffff;fill-opacity:1;fill-rule:nonzero;stroke:none"
             id="path250" /></g><g
           id="g252"
           transform="translate(213.7002,304.2871)"><path
             d="M 0,0 C 1.079,1.388 3.618,1.219 5.672,-0.377 7.725,-1.973 8.516,-4.392 7.437,-5.78 6.358,-7.167 3.819,-6.999 1.766,-5.403 -0.287,-3.807 -1.078,-1.388 0,0"
             style="fill:#00aee4;fill-opacity:1;fill-rule:nonzero;stroke:none"
             id="path254" /></g><g
           id="g256"
           transform="translate(219.2842,311.3281)"><path
             d="M 0,0 C -0.784,-1.763 -0.945,-3.33 -0.945,-3.33 -3.147,-4.538 -5.58,-7.044 -5.58,-7.044 l 3.715,-2.887 0.003,-0.003 3.715,-2.887 c 0,0 1.828,2.977 2.455,5.409 0,0 1.485,0.546 3.003,1.747 0.477,0.241 0.873,0.593 1.149,1.058 0.976,1.642 0.118,4.089 -1.832,5.605 C 4.678,2.513 2.095,2.74 0.744,1.389 0.358,1.003 0.114,0.527 0,0"
             style="fill:#00aee4;fill-opacity:1;fill-rule:nonzero;stroke:none"
             id="path258" /></g><g
           id="g260"
           transform="translate(214.0771,303.7988)"><path
             d="M 0,0 C 0.901,1.161 3.087,0.971 4.88,-0.422 6.673,-1.816 7.396,-3.887 6.494,-5.047 5.593,-6.207 3.408,-6.018 1.615,-4.624 -0.179,-3.23 -0.901,-1.16 0,0"
             style="fill:#ffffff;fill-opacity:1;fill-rule:nonzero;stroke:none"
             id="path262" /></g><g
           id="g264"
           transform="translate(287.4316,309.4429)"><path
             d="M 0,0 C -1.574,1.001 -1.719,3.591 -0.323,5.786 1.071,7.981 3.479,8.949 5.053,7.948 6.627,6.947 6.772,4.356 5.377,2.162 3.981,-0.033 1.573,-1.001 0,0"
             style="fill:#00aee4;fill-opacity:1;fill-rule:nonzero;stroke:none"
             id="path266" /></g><g
           id="g268"
           transform="translate(279.4307,314.6348)"><path
             d="m 0,0 c 1.926,-0.677 3.57,-0.734 3.57,-0.734 1.529,-2.154 4.433,-4.454 4.433,-4.454 l 2.524,3.97 0.002,0.004 2.525,3.97 c 0,0 -3.315,1.653 -5.914,2.124 0,0 -0.753,1.472 -2.189,2.932 C 4.642,8.28 4.227,8.658 3.71,8.907 1.886,9.786 -0.543,8.748 -1.868,6.664 -3.193,4.58 -3.103,1.94 -1.533,0.661 -1.085,0.295 -0.561,0.08 0,0"
             style="fill:#00aee4;fill-opacity:1;fill-rule:nonzero;stroke:none"
             id="path270" /></g><g
           id="g272"
           transform="translate(287.8896,309.8589)"><path
             d="M 0,0 C -1.316,0.836 -1.395,3.068 -0.176,4.985 1.042,6.902 3.097,7.777 4.413,6.94 5.729,6.104 5.808,3.872 4.589,1.955 3.37,0.039 1.315,-0.837 0,0"
             style="fill:#ffffff;fill-opacity:1;fill-rule:nonzero;stroke:none"
             id="path274" /></g><g
           id="g276"
           transform="translate(296.8428,349.2261)"><path
             d="M 0,0 C -1.729,-0.604 -3.824,0.898 -4.682,3.354 -5.539,5.809 -4.832,8.289 -3.104,8.892 -1.376,9.495 0.72,7.994 1.577,5.538 2.435,3.083 1.728,0.603 0,0"
             style="fill:#00aee4;fill-opacity:1;fill-rule:nonzero;stroke:none"
             id="path278" /></g><g
           id="g280"
           transform="translate(287.9775,346.2251)"><path
             d="m 0,0 c 1.689,1.08 2.729,2.325 2.729,2.325 2.594,-0.15 6.134,0.68 6.134,0.68 l -1.55,4.442 -10e-4,0.004 -1.55,4.442 c 0,0 -3.288,-1.554 -5.226,-3.286 0,0 -1.597,0.33 -3.597,0.12 C -3.611,8.778 -4.155,8.69 -4.66,8.443 -6.445,7.568 -7.11,5.028 -6.297,2.696 -5.482,0.364 -3.382,-1.209 -1.439,-0.783 -0.886,-0.662 -0.401,-0.387 0,0"
             style="fill:#00aee4;fill-opacity:1;fill-rule:nonzero;stroke:none"
             id="path282" /></g><g
           id="g284"
           transform="translate(296.7969,349.8423)"><path
             d="M 0,0 C -1.444,-0.504 -3.223,0.825 -3.971,2.97 -4.72,5.114 -4.154,7.261 -2.71,7.765 -1.266,8.27 0.513,6.94 1.261,4.796 2.01,2.651 1.445,0.504 0,0"
             style="fill:#ffffff;fill-opacity:1;fill-rule:nonzero;stroke:none"
             id="path286" /></g><g
           id="g288"
           transform="translate(218.2031,381.9712)"><path
             d="m 0,0 c 0.832,-1.241 -0.243,-3.421 -2.402,-4.871 -2.16,-1.449 -4.585,-1.619 -5.418,-0.378 -0.832,1.24 0.243,3.42 2.402,4.87 C -3.258,1.071 -0.833,1.24 0,0"
             style="fill:#00aee4;fill-opacity:1;fill-rule:nonzero;stroke:none"
             id="path290" /></g><g
           id="g292"
           transform="translate(222.3867,375.5801)"><path
             d="m 0,0 c -1.271,1.064 -2.597,1.543 -2.597,1.543 -0.263,2.182 -1.59,4.846 -1.59,4.846 L -8.094,3.767 -8.098,3.764 -12.004,1.142 c 0,0 1.963,-2.237 3.883,-3.308 0,0 -0.06,-1.414 0.448,-2.998 0.039,-0.468 0.205,-0.889 0.515,-1.23 1.095,-1.205 3.57,-0.984 5.621,0.393 2.051,1.376 3.193,3.583 2.492,5.053 C 0.756,-0.529 0.424,-0.213 0,0"
             style="fill:#00aee4;fill-opacity:1;fill-rule:nonzero;stroke:none"
             id="path294" /></g><g
           id="g296"
           transform="translate(217.6348,381.7471)"><path
             d="m 0,0 c 0.696,-1.037 -0.269,-2.904 -2.154,-4.169 -1.886,-1.266 -3.979,-1.452 -4.675,-0.415 -0.696,1.037 0.268,2.904 2.154,4.169 C -2.789,0.851 -0.696,1.037 0,0"
             style="fill:#ffffff;fill-opacity:1;fill-rule:nonzero;stroke:none"
             id="path298" /></g><g
           id="g300"
           transform="translate(240.2334,394.0815)"><path
             d="m 0,0 c 0.447,-1.425 -1.201,-3.212 -3.683,-3.992 -2.481,-0.779 -4.855,-0.256 -5.302,1.17 -0.449,1.425 1.2,3.212 3.681,3.991 C -2.822,1.949 -0.448,1.425 0,0"
             style="fill:#00aee4;fill-opacity:1;fill-rule:nonzero;stroke:none"
             id="path302" /></g><g
           id="g304"
           transform="translate(242.4375,386.7686)"><path
             d="m 0,0 c -0.918,1.381 -2.054,2.214 -2.054,2.214 0.365,2.168 -0.154,5.098 -0.154,5.098 l -4.489,-1.41 -0.004,-0.001 -4.488,-1.41 c 0,0 1.25,-2.7 2.788,-4.271 0,0 -0.457,-1.339 -0.418,-3.002 -0.096,-0.46 -0.055,-0.912 0.145,-1.326 0.709,-1.466 3.146,-1.954 5.502,-1.213 2.357,0.74 4.077,2.533 3.82,4.141 C 0.576,-0.721 0.347,-0.325 0,0"
             style="fill:#00aee4;fill-opacity:1;fill-rule:nonzero;stroke:none"
             id="path306" /></g><g
           id="g308"
           transform="translate(239.625,394.0278)"><path
             d="m 0,0 c 0.374,-1.191 -1.079,-2.709 -3.246,-3.39 -2.167,-0.68 -4.227,-0.266 -4.601,0.925 -0.375,1.192 1.078,2.709 3.245,3.39 C -2.435,1.605 -0.375,1.191 0,0"
             style="fill:#ffffff;fill-opacity:1;fill-rule:nonzero;stroke:none"
             id="path310" /></g><g
           id="g312"
           transform="translate(250.0117,366.5181)"><path
             d="m 0,0 c -0.308,-1.908 -2.456,-3.286 -4.832,-3.286 -2.377,0 -4.525,1.378 -4.833,3.286 -0.354,2.187 1.788,4.209 4.832,4.209 C -1.789,4.209 0.353,2.187 0,0"
             style="fill:#00aee4;fill-opacity:1;fill-rule:nonzero;stroke:none"
             id="path314" /></g><g
           id="g316"
           transform="translate(239.7715,370.7549)"><path
             d="m 0,0 c 0,0 -0.102,-1.335 0.696,-2.607 0,0 -0.209,-0.838 -0.121,-1.63 H 5.408 L 5.407,0 Z"
             style="fill:#00aee4;fill-opacity:1;fill-rule:nonzero;stroke:none"
             id="path318" /></g><g
           id="g320"
           transform="translate(250.5928,370.7549)"><path
             d="m 0,0 c 0,0 0.102,-1.335 -0.696,-2.606 0,0 0.209,-0.839 0.121,-1.631 H -5.408 V 0 Z"
             style="fill:#00aee4;fill-opacity:1;fill-rule:nonzero;stroke:none"
             id="path322" /></g><g
           id="g324"
           transform="translate(250.5859,370.7549)"><path
             d="m 0,0 c -0.374,-2.372 -2.775,-4.066 -5.406,-4.066 -2.632,0 -5.032,1.694 -5.408,4.066 -0.436,2.753 1.954,5.333 5.406,5.333 C -1.956,5.334 0.436,2.753 0,0"
             style="fill:#00aee4;fill-opacity:1;fill-rule:nonzero;stroke:none"
             id="path326" /></g><g
           id="g328"
           transform="translate(249.833,371.2412)"><path
             d="M 0,0 C -0.266,-1.977 -2.337,-3.422 -4.653,-3.422 -6.97,-3.422 -9.042,-1.978 -9.308,0 -9.607,2.231 -7.54,4.263 -4.654,4.263 -1.769,4.264 0.299,2.232 0,0"
             style="fill:#ffffff;fill-opacity:1;fill-rule:nonzero;stroke:none"
             id="path330" /></g><g
           id="g332"
           transform="translate(275.3711,329.7383)"><path
             d="m 0,0 c -2.057,0.146 -3.598,2.187 -3.478,4.561 0.121,2.373 1.86,4.248 3.921,4.186 C 2.545,8.683 4.178,6.638 4.054,4.179 3.929,1.721 2.097,-0.149 0,0"
             style="fill:#00aee4;fill-opacity:1;fill-rule:nonzero;stroke:none"
             id="path334" /></g><g
           id="g336"
           transform="translate(279.668,338.2808)"><path
             d="m 0,0 c 0,0 -1.109,0.296 -2.28,-0.176 0,0 -0.785,0.321 -1.574,0.38 l -0.221,-4.373 3.854,-0.195 z"
             style="fill:#00aee4;fill-opacity:1;fill-rule:nonzero;stroke:none"
             id="path338" /></g><g
           id="g340"
           transform="translate(279.2256,329.5474)"><path
             d="m 0,0 c 0,0 -1.134,-0.183 -2.251,0.405 0,0 -0.813,-0.24 -1.603,-0.219 l 0.22,4.373 3.855,-0.195 z"
             style="fill:#00aee4;fill-opacity:1;fill-rule:nonzero;stroke:none"
             id="path342" /></g><g
           id="g344"
           transform="translate(279.2256,329.5522)"><path
             d="M 0,0 C -2.046,0.145 -3.58,2.181 -3.46,4.55 -3.34,6.92 -1.608,8.791 0.442,8.729 2.532,8.665 4.155,6.625 4.031,4.172 3.907,1.719 2.086,-0.147 0,0"
             style="fill:#00aee4;fill-opacity:1;fill-rule:nonzero;stroke:none"
             id="path346" /></g><g
           id="g348"
           transform="translate(279.6484,330.187)"><path
             d="M 0,0 C -1.646,0.111 -2.879,1.838 -2.776,3.859 -2.675,5.88 -1.272,7.475 0.376,7.419 2.051,7.363 3.342,5.633 3.236,3.556 3.131,1.478 1.672,-0.113 0,0"
             style="fill:#ffffff;fill-opacity:1;fill-rule:nonzero;stroke:none"
             id="path350" /></g><g
           id="g352"
           transform="translate(253.75,315.6963)"><path
             d="M 0,0 C -0.515,1.997 0.932,4.106 3.221,4.745 5.509,5.384 7.839,4.33 8.435,2.356 9.042,0.343 7.621,-1.855 5.25,-2.517 2.879,-3.179 0.524,-2.036 0,0"
             style="fill:#00aee4;fill-opacity:1;fill-rule:nonzero;stroke:none"
             id="path354" /></g><g
           id="g356"
           transform="translate(263.2148,314.3335)"><path
             d="m 0,0 c 0,0 -0.071,1.146 -0.891,2.106 0,0 0.055,0.847 -0.139,1.613 l -4.218,-1.178 1.039,-3.717 z"
             style="fill:#00aee4;fill-opacity:1;fill-rule:nonzero;stroke:none"
             id="path358" /></g><g
           id="g360"
           transform="translate(254.792,311.9805)"><path
             d="m 0,0 c 0,0 -0.532,1.017 -0.33,2.263 0,0 -0.485,0.695 -0.717,1.451 L 3.17,4.893 4.209,1.176 Z"
             style="fill:#00aee4;fill-opacity:1;fill-rule:nonzero;stroke:none"
             id="path362" /></g><g
           id="g364"
           transform="translate(254.7969,311.9819)"><path
             d="M 0,0 C -0.512,1.986 0.932,4.087 3.217,4.725 5.502,5.364 7.826,4.316 8.418,2.352 9.021,0.35 7.601,-1.837 5.235,-2.499 2.871,-3.159 0.522,-2.025 0,0"
             style="fill:#00aee4;fill-opacity:1;fill-rule:nonzero;stroke:none"
             id="path366" /></g><g
           id="g368"
           transform="translate(255.5332,311.7822)"><path
             d="M 0,0 C -0.417,1.596 0.829,3.314 2.778,3.858 4.728,4.403 6.684,3.58 7.155,1.999 7.633,0.394 6.402,-1.38 4.398,-1.94 2.396,-2.5 0.423,-1.621 0,0"
             style="fill:#ffffff;fill-opacity:1;fill-rule:nonzero;stroke:none"
             id="path370" /></g><g
           id="g372"
           transform="translate(227.7969,331.2803)"><path
             d="M 0,0 C 2.587,1.04 5.544,-0.257 6.604,-2.897 7.665,-5.537 6.429,-8.52 3.842,-9.559 1.255,-10.599 -1.702,-9.301 -2.763,-6.662 -3.823,-4.022 -2.587,-1.04 0,0"
             style="fill:#00aee4;fill-opacity:1;fill-rule:nonzero;stroke:none"
             id="path374" /></g><g
           id="g376"
           transform="translate(226.8896,319.9224)"><path
             d="m 0,0 c 0,0 1.467,0.262 2.643,1.371 0,0 1.112,0.073 2.106,0.428 L 2.828,6.579 -1.883,4.686 Z"
             style="fill:#00aee4;fill-opacity:1;fill-rule:nonzero;stroke:none"
             id="path378" /></g><g
           id="g380"
           transform="translate(223.1221,329.2979)"><path
             d="m 0,0 c 0,0 1.239,0.827 2.855,0.839 0,0 0.854,0.717 1.817,1.149 l 1.922,-4.78 -4.711,-1.893 z"
             style="fill:#00aee4;fill-opacity:1;fill-rule:nonzero;stroke:none"
             id="path382" /></g><g
           id="g384"
           transform="translate(223.124,329.293)"><path
             d="M 0,0 C 2.482,0.998 5.338,-0.291 6.378,-2.878 7.418,-5.466 6.249,-8.373 3.767,-9.37 1.284,-10.368 -1.572,-9.08 -2.612,-6.492 -3.652,-3.904 -2.482,-0.998 0,0"
             style="fill:#00aee4;fill-opacity:1;fill-rule:nonzero;stroke:none"
             id="path386" /></g><g
           id="g388"
           transform="translate(222.9424,328.3955)"><path
             d="M 0,0 C 1.985,0.798 4.311,-0.334 5.192,-2.53 6.075,-4.726 5.181,-7.152 3.195,-7.951 1.209,-8.749 -1.116,-7.616 -1.998,-5.42 -2.881,-3.225 -1.986,-0.798 0,0"
             style="fill:#ffffff;fill-opacity:1;fill-rule:nonzero;stroke:none"
             id="path390" /></g><g
           id="g392"
           transform="translate(263.4229,343.6738)"><path
             d="M 0,0 C -1.966,-1.978 -5.194,-1.955 -7.212,0.051 -9.229,2.057 -9.272,5.285 -7.307,7.263 -5.342,9.24 -2.113,9.217 -0.095,7.211 1.923,5.206 1.965,1.977 0,0"
             style="fill:#00aee4;fill-opacity:1;fill-rule:nonzero;stroke:none"
             id="path394" /></g><g
           id="g396"
           transform="translate(259.7666,354.4653)"><path
             d="m 0,0 c 0,0 -1.244,-0.82 -1.885,-2.303 0,0 -0.993,-0.507 -1.765,-1.226 l 3.653,-3.631 3.578,3.6 z"
             style="fill:#00aee4;fill-opacity:1;fill-rule:nonzero;stroke:none"
             id="path398" /></g><g
           id="g400"
           transform="translate(266.9336,347.3423)"><path
             d="m 0,0 c 0,0 -0.812,-1.249 -2.291,-1.899 0,0 -0.501,-0.996 -1.216,-1.774 l -3.653,3.631 3.579,3.601 z"
             style="fill:#00aee4;fill-opacity:1;fill-rule:nonzero;stroke:none"
             id="path402" /></g><g
           id="g404"
           transform="translate(266.9297,347.3462)"><path
             d="M 0,0 C -1.886,-1.898 -5.019,-1.842 -6.997,0.124 -8.975,2.089 -9.049,5.221 -7.163,7.119 -5.277,9.017 -2.145,8.961 -0.167,6.996 1.812,5.03 1.886,1.898 0,0"
             style="fill:#00aee4;fill-opacity:1;fill-rule:nonzero;stroke:none"
             id="path406" /></g><g
           id="g408"
           transform="translate(266.7422,348.2427)"><path
             d="M 0,0 C -1.509,-1.518 -4.092,-1.396 -5.771,0.271 -7.449,1.939 -7.586,4.522 -6.078,6.04 -4.569,7.558 -1.985,7.437 -0.308,5.769 1.371,4.101 1.509,1.518 0,0"
             style="fill:#ffffff;fill-opacity:1;fill-rule:nonzero;stroke:none"
             id="path410" /></g><g
           id="g412"
           transform="translate(227.0439,356.7373)"><path
             d="m 0,0 c 2.316,-1.551 2.912,-4.724 1.33,-7.088 -1.582,-2.365 -4.743,-3.024 -7.059,-1.474 -2.318,1.551 -2.914,4.724 -1.331,7.088 C -5.478,0.891 -2.317,1.55 0,0"
             style="fill:#00aee4;fill-opacity:1;fill-rule:nonzero;stroke:none"
             id="path414" /></g><g
           id="g416"
           transform="translate(217.1514,351.0835)"><path
             d="m 0,0 c 0,0 1.043,-1.064 2.621,-1.409 0,0 0.689,-0.878 1.542,-1.499 L 7.027,1.373 2.809,4.196 Z"
             style="fill:#00aee4;fill-opacity:1;fill-rule:nonzero;stroke:none"
             id="path418" /></g><g
           id="g420"
           transform="translate(222.7715,359.481)"><path
             d="m 0,0 c 0,0 1.381,-0.558 2.303,-1.885 0,0 1.073,-0.302 1.972,-0.854 l -2.864,-4.281 -4.22,2.824 z"
             style="fill:#00aee4;fill-opacity:1;fill-rule:nonzero;stroke:none"
             id="path422" /></g><g
           id="g424"
           transform="translate(222.7676,359.4766)"><path
             d="M 0,0 C 2.224,-1.488 2.77,-4.573 1.219,-6.891 -0.332,-9.208 -3.393,-9.881 -5.616,-8.393 -7.84,-6.905 -8.385,-3.82 -6.834,-1.502 -5.283,0.815 -2.224,1.488 0,0"
             style="fill:#00aee4;fill-opacity:1;fill-rule:nonzero;stroke:none"
             id="path426" /></g><g
           id="g428"
           transform="translate(221.9238,359.1211)"><path
             d="m 0,0 c 1.779,-1.19 2.154,-3.75 0.838,-5.716 -1.316,-1.967 -3.824,-2.596 -5.603,-1.406 -1.779,1.19 -2.154,3.749 -0.838,5.716 C -4.287,0.561 -1.778,1.19 0,0"
             style="fill:#ffffff;fill-opacity:1;fill-rule:nonzero;stroke:none"
             id="path430" /></g><g
           id="g432"
           transform="translate(202.9531,273.4829)"><path
             d="m 0,0 c -4.757,5.211 -9.002,10.691 -12.639,16.314 l 117.945,117.943 c 4.113,-5.4 9.275,-9.958 15.375,-13.577 z"
             style="fill:#0094c2;fill-opacity:1;fill-rule:nonzero;stroke:none"
             id="path434" /></g><g
           id="g436"
           transform="translate(308.3945,409.5854)"><path
             d="m 0,0 -119.621,-119.621 c 4.267,-6.724 9.095,-12.796 14.143,-18.226 L 17.208,-15.162 C 9.398,-10.808 3.882,-5.397 0,0 M -0.247,-3.664 C 3.504,-8.328 8.044,-12.347 13.3,-15.653 l -118.697,-118.698 c -4.141,4.625 -7.875,9.455 -11.135,14.402 L -0.247,-3.664"
             style="fill:#ffffff;fill-opacity:1;fill-rule:nonzero;stroke:none"
             id="path438" /></g><g
           id="g440"><g
             id="g442" /><g
             id="g454"><g
               clip-path="url(#clipPath446)"
               opacity="0.5"
               id="g452"><g
                 transform="translate(250.9805,436.9868)"
                 id="g450"><path
                   d="m 0,0 h -57.818 l -0.093,-2.798 c -0.002,-0.068 -0.277,-6.995 -4.626,-15.174 -5.872,-11.049 -15.964,-18.715 -29.991,-22.782 l -2.143,-0.621 0.057,-2.231 c 0.066,-2.641 1.877,-65.102 22.337,-101.77 23.608,-42.309 68.268,-61.79 70.157,-62.598 l 1.139,-0.487 0.981,0.419 z"
                   style="fill:#00aee4;fill-opacity:1;fill-rule:nonzero;stroke:none"
                   id="path448" /></g></g></g></g></g></g></g></svg>
